HIERARCHY
ROOT Root
{
  OFFSET 0.0 0.0 0.0
  CHANNELS 6 Xposition Yposition Zposition Zrotation Yrotation Xrotation
  JOINT Hips
  {
    OFFSET 0.0 100.0 0.0
    CHANNELS 6 Xposition Yposition Zposition Zrotation Yrotation Xrotation
    JOINT Spine1
    {
      OFFSET -0.013727 5.003763 -0.053727
      CHANNELS 3 Zrotation Yrotation Xrotation
      JOINT Spine2
      {
        OFFSET -0.0 7.125301 -0.029825
        CHANNELS 3 Zrotation Yrotation Xrotation
        JOINT Chest
        {
          OFFSET -1e-06 7.550063 -0.815971
          CHANNELS 3 Zrotation Yrotation Xrotation
          JOINT Neck1
          {
            OFFSET -0.181677 26.311295 -0.553348
            CHANNELS 3 Zrotation Yrotation Xrotation
            JOINT Neck2
            {
              OFFSET -3e-06 7.709397 2.302585
              CHANNELS 3 Zrotation Yrotation Xrotation
              JOINT Head
              {
                OFFSET -5e-06 6.128916 1.953709
                CHANNELS 3 Zrotation Yrotation Xrotation
                JOINT HeadEnd
                {
                  OFFSET 0.003598 16.065403 -1.835379
                  CHANNELS 3 Zrotation Yrotation Xrotation
                }
                JOINT Jaw
                {
                  OFFSET 0.002637 0.475592 3.094941
                  CHANNELS 3 Zrotation Yrotation Xrotation
                }
                JOINT LeftEye
                {
                  OFFSET 3.206381 5.380205 7.586883
                  CHANNELS 3 Zrotation Yrotation Xrotation
                }
                JOINT RightEye
                {
                  OFFSET -3.22244 5.361869 7.558234
                  CHANNELS 3 Zrotation Yrotation Xrotation
                }
              }
            }
          }
          JOINT LeftShoulder
          {
            OFFSET 1.621652 23.237164 5.113413
            CHANNELS 3 Zrotation Yrotation Xrotation
            JOINT LeftArm
            {
              OFFSET 14.919846 2e-06 -5.502326
              CHANNELS 3 Zrotation Yrotation Xrotation
              JOINT LeftForeArm
              {
                OFFSET 28.739307 0.0 -0.002588
                CHANNELS 3 Zrotation Yrotation Xrotation
                JOINT LeftHand
                {
                  OFFSET 27.093981 -1e-06 0.002609
                  CHANNELS 3 Zrotation Yrotation Xrotation
                  JOINT LeftHandThumb1
                  {
                    OFFSET 2.276482 -1.392045 3.191413
                    CHANNELS 3 Zrotation Yrotation Xrotation
                    JOINT LeftHandThumb2
                    {
                      OFFSET 4.012836 -1.828127 1.641654
                      CHANNELS 3 Zrotation Yrotation Xrotation
                      JOINT LeftHandThumb3
                      {
                        OFFSET 2.798515 0.0 -3e-06
                        CHANNELS 3 Zrotation Yrotation Xrotation
                        JOINT LeftHandThumbEnd
                        {
                          OFFSET 3.180793 -4e-06 4e-06
                          CHANNELS 3 Zrotation Yrotation Xrotation
                        }
                      }
                    }
                  }
                  JOINT LeftHandIndex1
                  {
                    OFFSET 3.247555 -0.531998 2.296169
                    CHANNELS 3 Zrotation Yrotation Xrotation
                    JOINT LeftHandIndex2
                    {
                      OFFSET 6.364578 0.01206 0.1786
                      CHANNELS 3 Zrotation Yrotation Xrotation
                      JOINT LeftHandIndex3
                      {
                        OFFSET 3.662364 0.0 0.0
                        CHANNELS 3 Zrotation Yrotation Xrotation
                        JOINT LeftHandIndex4
                        {
                          OFFSET 2.329242 4e-06 4e-06
                          CHANNELS 3 Zrotation Yrotation Xrotation
                          JOINT LeftHandIndexEnd
                          {
                            OFFSET 2.759615 -0.180537 -0.113024
                            CHANNELS 3 Zrotation Yrotation Xrotation
                          }
                        }
                      }
                    }
                  }
                  JOINT LeftHandMiddle1
                  {
                    OFFSET 3.163495 0.240981 1.000332
                    CHANNELS 3 Zrotation Yrotation Xrotation
                    JOINT LeftHandMiddle2
                    {
                      OFFSET 6.19078 -0.259278 -1.002548
                      CHANNELS 3 Zrotation Yrotation Xrotation
                      JOINT LeftHandMiddle3
                      {
                        OFFSET 4.35652 -4e-06 -1e-06
                        CHANNELS 3 Zrotation Yrotation Xrotation
                        JOINT LeftHandMiddle4
                        {
                          OFFSET 2.996877 -8e-06 0.0
                          CHANNELS 3 Zrotation Yrotation Xrotation
                          JOINT LeftHandMiddleEnd
                          {
                            OFFSET 2.304287 -0.294569 -0.031741
                            CHANNELS 3 Zrotation Yrotation Xrotation
                          }
                        }
                      }
                    }
                  }
                  JOINT LeftHandRing1
                  {
                    OFFSET 2.882643 -0.053652 -0.322543
                    CHANNELS 3 Zrotation Yrotation Xrotation
                    JOINT LeftHandRing2
                    {
                      OFFSET 5.854541 -0.486202 -1.373841
                      CHANNELS 3 Zrotation Yrotation Xrotation
                      JOINT LeftHandRing3
                      {
                        OFFSET 4.350578 0.0 3e-06
                        CHANNELS 3 Zrotation Yrotation Xrotation
                        JOINT LeftHandRing4
                        {
                          OFFSET 2.651321 7e-06 2e-06
                          CHANNELS 3 Zrotation Yrotation Xrotation
                          JOINT LeftHandRingEnd
                          {
                            OFFSET 1.936105 0.077687 -7.1e-05
                            CHANNELS 3 Zrotation Yrotation Xrotation
                          }
                        }
                      }
                    }
                  }
                  JOINT LeftHandPinky1
                  {
                    OFFSET 2.8655 -0.310005 -1.600378
                    CHANNELS 3 Zrotation Yrotation Xrotation
                    JOINT LeftHandPinky2
                    {
                      OFFSET 5.087849 -1.331141 -1.77123
                      CHANNELS 3 Zrotation Yrotation Xrotation
                      JOINT LeftHandPinky3
                      {
                        OFFSET 3.070974 4e-06 0.0
                        CHANNELS 3 Zrotation Yrotation Xrotation
                        JOINT LeftHandPinky4
                        {
                          OFFSET 1.549672 0.0 1e-06
                          CHANNELS 3 Zrotation Yrotation Xrotation
                          JOINT LeftHandPinkyEnd
                          {
                            OFFSET 1.944893 -0.157802 0.057219
                            CHANNELS 3 Zrotation Yrotation Xrotation
                          }
                        }
                      }
                    }
                  }
                }
              }
            }
          }
          JOINT RightShoulder
          {
            OFFSET -1.380118 23.180309 5.214158
            CHANNELS 3 Zrotation Yrotation Xrotation
            JOINT RightArm
            {
              OFFSET -15.037196 1.2e-05 -5.545604
              CHANNELS 3 Zrotation Yrotation Xrotation
              JOINT RightForeArm
              {
                OFFSET -28.736639 2e-06 -0.002597
                CHANNELS 3 Zrotation Yrotation Xrotation
                JOINT RightHand
                {
                  OFFSET -27.133619 -0.0 0.002613
                  CHANNELS 3 Zrotation Yrotation Xrotation
                  JOINT RightHandThumb1
                  {
                    OFFSET -2.274032 -1.383988 3.163127
                    CHANNELS 3 Zrotation Yrotation Xrotation
                    JOINT RightHandThumb2
                    {
                      OFFSET -4.011429 -1.827466 1.640914
                      CHANNELS 3 Zrotation Yrotation Xrotation
                      JOINT RightHandThumb3
                      {
                        OFFSET -2.794935 -4e-06 -3e-06
                        CHANNELS 3 Zrotation Yrotation Xrotation
                        JOINT RightHandThumbEnd
                        {
                          OFFSET -3.183852 4e-06 1e-06
                          CHANNELS 3 Zrotation Yrotation Xrotation
                        }
                      }
                    }
                  }
                  JOINT RightHandIndex1
                  {
                    OFFSET -3.253266 -0.520057 2.282866
                    CHANNELS 3 Zrotation Yrotation Xrotation
                    JOINT RightHandIndex2
                    {
                      OFFSET -6.341917 0.012471 0.178266
                      CHANNELS 3 Zrotation Yrotation Xrotation
                      JOINT RightHandIndex3
                      {
                        OFFSET -3.654871 -8e-06 -0.0
                        CHANNELS 3 Zrotation Yrotation Xrotation
                        JOINT RightHandIndex4
                        {
                          OFFSET -2.327586 0.0 1e-06
                          CHANNELS 3 Zrotation Yrotation Xrotation
                          JOINT RightHandIndexEnd
                          {
                            OFFSET -2.76179 -0.180656 -0.113078
                            CHANNELS 3 Zrotation Yrotation Xrotation
                          }
                        }
                      }
                    }
                  }
                  JOINT RightHandMiddle1
                  {
                    OFFSET -3.168106 0.246593 1.00103
                    CHANNELS 3 Zrotation Yrotation Xrotation
                    JOINT RightHandMiddle2
                    {
                      OFFSET -6.180828 -0.258836 -1.000895
                      CHANNELS 3 Zrotation Yrotation Xrotation
                      JOINT RightHandMiddle3
                      {
                        OFFSET -4.348901 0.0 -0.0
                        CHANNELS 3 Zrotation Yrotation Xrotation
                        JOINT RightHandMiddle4
                        {
                          OFFSET -3.00024 -4e-06 -2e-06
                          CHANNELS 3 Zrotation Yrotation Xrotation
                          JOINT RightHandMiddleEnd
                          {
                            OFFSET -2.30252 -0.29437 -0.031706
                            CHANNELS 3 Zrotation Yrotation Xrotation
                          }
                        }
                      }
                    }
                  }
                  JOINT RightHandRing1
                  {
                    OFFSET -2.88569 -0.067952 -0.308858
                    CHANNELS 3 Zrotation Yrotation Xrotation
                    JOINT RightHandRing2
                    {
                      OFFSET -5.854198 -0.48613 -1.373731
                      CHANNELS 3 Zrotation Yrotation Xrotation
                      JOINT RightHandRing3
                      {
                        OFFSET -4.33881 -4e-06 -0.0
                        CHANNELS 3 Zrotation Yrotation Xrotation
                        JOINT RightHandRing4
                        {
                          OFFSET -2.654903 -4e-06 4e-06
                          CHANNELS 3 Zrotation Yrotation Xrotation
                          JOINT RightHandRingEnd
                          {
                            OFFSET -1.933568 0.077527 -5.2e-05
                            CHANNELS 3 Zrotation Yrotation Xrotation
                          }
                        }
                      }
                    }
                  }
                  JOINT RightHandPinky1
                  {
                    OFFSET -2.866425 -0.342796 -1.584145
                    CHANNELS 3 Zrotation Yrotation Xrotation
                    JOINT RightHandPinky2
                    {
                      OFFSET -5.091371 -1.332055 -1.772385
                      CHANNELS 3 Zrotation Yrotation Xrotation
                      JOINT RightHandPinky3
                      {
                        OFFSET -3.062664 -4e-06 1e-06
                        CHANNELS 3 Zrotation Yrotation Xrotation
                        JOINT RightHandPinky4
                        {
                          OFFSET -1.546529 4e-06 -2e-06
                          CHANNELS 3 Zrotation Yrotation Xrotation
                          JOINT RightHandPinkyEnd
                          {
                            OFFSET -1.945119 -0.157718 0.057211
                            CHANNELS 3 Zrotation Yrotation Xrotation
                          }
                        }
                      }
                    }
                  }
                }
              }
            }
          }
        }
      }
    }
    JOINT LeftLeg
    {
      OFFSET 10.043214 -8.434526 2.595655
      CHANNELS 3 Zrotation Yrotation Xrotation
      JOINT LeftShin
      {
        OFFSET -1e-06 -43.221752 -0.802913
        CHANNELS 3 Zrotation Yrotation Xrotation
        JOINT LeftFoot
        {
          OFFSET 1e-06 -42.155094 -3.481523
          CHANNELS 3 Zrotation Yrotation Xrotation
          JOINT LeftToeBase
          {
            OFFSET 0.0 -5.059472 13.231529
            CHANNELS 3 Zrotation Yrotation Xrotation
            JOINT LeftToeEnd
            {
              OFFSET -0.009607 -1.647619 6.513017
              CHANNELS 3 Zrotation Yrotation Xrotation
            }
          }
        }
      }
    }
    JOINT RightLeg
    {
      OFFSET -10.047278 -8.29526 2.620317
      CHANNELS 3 Zrotation Yrotation Xrotation
      JOINT RightShin
      {
        OFFSET 1e-06 -43.362206 -0.805556
        CHANNELS 3 Zrotation Yrotation Xrotation
        JOINT RightFoot
        {
          OFFSET 2e-06 -42.117393 -3.478398
          CHANNELS 3 Zrotation Yrotation Xrotation
          JOINT RightToeBase
          {
            OFFSET -0.0 -5.079609 13.284196
            CHANNELS 3 Zrotation Yrotation Xrotation
            JOINT RightToeEnd
            {
              OFFSET 0.009532 -1.634378 6.460591
              CHANNELS 3 Zrotation Yrotation Xrotation
            }
          }
        }
      }
    }
  }
}
MOTION
Frames: 5
Frame Time: 0.03333333333333333
0.0 0.0 0.0 0.0 -0.0 0.0 -2.036852 95.441528 -0.803571 0.956056 0.009839 -13.926305 0.743572 -0.28539 1.499674 -0.192767 -1.101326 -3.97104 3.695538 -3.329837 4.160756 -1.804794 4.617978 30.129276 0.220035 2.295567 -3.164979 1.134595 1.352984 11.172158 7.7e-05 -2.3e-05 6e-06 0.04038 -0.024417 0.000541 0.800828 -3.735072 -10.433597 -0.712576 3.683269 -10.444614 -4.027838 -4.465046 6.06892 4.921734 -45.604595 10.171997 -171.951782 -88.586395 174.37677 41.050537 -1.79449 28.664692 -5.88211 9.861288 0.702589 -10.936881 -0.360577 7.156209 3e-06 8.774829 -2e-06 -16.49198 17.384218 5.637303 -1.844034 2.498506 -2.507281 -10.163608 4.678944 4.621111 -20.97604 -8e-06 1e-06 -21.226305 2.451692 -3.594004 0.0 -6e-06 -1e-06 -1.362682 2.240798 -0.746324 -21.334932 0.584907 3.008325 -13.821227 -4e-06 2e-06 -23.887192 -0.249084 -0.839485 -62.505363 2.980929 -1.310114 -0.294025 1.679687 0.833257 -14.21822 0.093212 1.300579 -34.212074 -0.287573 0.96717 -20.03323 0.964531 1.212848 0.0 0.0 -1e-06 -3.440391 0.788232 0.501656 -15.928201 -3.167314 2.999708 -6.338833 -2e-06 0.0 -18.123461 3.648179 -4.905676 -6e-06 1e-06 -2e-06 8.924317 6.605657 6.26649 20.162573 70.425301 17.813761 11.331163 80.88945 12.18225 -31.47049 -39.943035 31.850521 2.243545 -5.255042 -3.180161 14.282907 -0.826596 6.952511 -3e-06 -12.690614 0.0 16.450863 -18.109407 2.310705 1.665668 -1.955922 -2.878303 4.727805 -4.170591 4.993928 11.020537 3e-06 -0.0 12.109062 -3.735717 -2.866786 0.0 0.0 0.0 1.291988 -1.928551 -1.498091 14.800144 0.567469 3.865612 14.242585 -1.341735 -6.660664 19.631987 0.143925 -0.648245 51.093582 -0.788508 -6.051439 0.35303 -1.511152 -0.03194 20.222815 3.684312 2.316633 18.787294 3e-06 -0.0 10.751639 -0.479868 1.397908 0.0 1e-06 -0.0 3.27381 0.305948 -0.580111 21.486834 11.830382 2.266137 8.162937 3e-06 -0.0 18.399099 -3.798988 -4.940578 2e-06 -0.0 -0.0 21.157204 26.172371 4.619043 -0.250108 -0.379657 22.787031 -14.802384 11.572763 -5.003865 1.642445 -1.862105 -1.010329 -0.0 0.0 2e-06 -19.595341 -15.587576 4.81849 0.284278 0.544853 25.31222 16.648609 -10.526358 -10.686946 -1.426792 0.919249 -1.307727 -0.0 0.0 -1e-06 
0.0 0.0 0.0 0.0 -0.0 0.0 -2.051099 95.439384 -0.820426 0.949623 -0.118575 -14.03118 0.717817 -0.319532 1.558548 -0.13879 -1.074241 -3.945433 3.6038 -3.304091 4.152411 -1.602863 4.35178 30.143612 0.24182 2.447142 -3.214409 1.151592 1.286935 11.187324 7.7e-05 -2.2e-05 5e-06 0.033726 -0.022009 -0.003478 0.801742 -3.735396 -10.463983 -0.726233 3.687809 -10.469306 -3.947445 -4.387258 5.985996 4.53828 -45.956852 10.102675 173.272507 -89.129349 -171.103271 41.123859 -2.176289 28.760445 -5.88211 9.861288 0.702586 -10.936878 -0.360576 7.156209 1e-06 8.774828 -2e-06 -16.433313 17.304321 5.684005 -1.844032 2.498505 -2.50728 -10.163604 4.678945 4.621109 -20.976038 -6e-06 2e-06 -21.226299 2.451693 -3.594002 0.0 -5e-06 -0.0 -1.362682 2.240799 -0.746326 -21.334925 0.584907 3.008323 -13.821222 -5e-06 1e-06 -23.887182 -0.249084 -0.839484 -62.485455 2.893661 -1.259404 -0.294024 1.679688 0.833256 -14.218216 0.093211 1.300581 -34.212067 -0.287569 0.967172 -20.033226 0.964534 1.212845 0.0 1e-06 -0.0 -3.44039 0.788233 0.501654 -15.928198 -3.167314 2.999708 -6.338833 -1e-06 0.0 -18.123457 3.64818 -4.905674 -5e-06 1e-06 -1e-06 8.924975 6.751453 6.317594 20.37517 70.879425 17.98295 8.995284 80.151344 9.438931 -31.534096 -39.255493 32.506416 2.243543 -5.255036 -3.180158 14.282896 -0.826595 6.952504 -3e-06 -12.690605 0.0 16.444885 -18.161802 2.385485 1.665667 -1.955921 -2.8783 4.727799 -4.170587 4.993925 11.020529 2e-06 -2e-06 12.109055 -3.735716 -2.866785 0.0 -0.0 0.0 1.291986 -1.92855 -1.498089 14.800132 0.567468 3.865608 14.242577 -1.341736 -6.660659 19.631973 0.143926 -0.648245 51.056057 -0.839478 -6.110857 0.35303 -1.51115 -0.031941 20.222797 3.684311 2.31663 18.787275 6e-06 -1e-06 10.751631 -0.479868 1.397906 1e-06 0.0 -0.0 3.273808 0.305948 -0.580111 21.486816 11.830374 2.266133 8.162929 2e-06 -1e-06 18.399084 -3.798984 -4.940576 2e-06 1e-06 -1e-06 21.184427 25.963446 4.778804 -0.264416 -0.391812 22.719196 -14.902035 11.734997 -5.056378 1.655023 -1.895904 -1.02904 -0.0 0.0 2e-06 -19.538746 -15.413679 4.83743 0.277139 0.53944 25.354605 16.638971 -10.609228 -10.676429 -1.433532 0.909333 -1.197738 -0.0 1e-06 -1e-06 
0.0 0.0 0.0 0.0 -0.0 0.0 -2.052747 95.423538 -0.863097 0.964881 -0.264948 -14.10418 0.692415 -0.325303 1.583061 -0.131485 -1.04946 -3.918132 3.567966 -3.230862 4.189743 -1.422909 4.15661 30.140778 0.247883 2.494128 -3.269839 1.176714 1.338794 11.188623 7.7e-05 -2.2e-05 6e-06 0.028613 -0.016563 -0.002612 0.79518 -3.73285 -10.500321 -0.729454 3.694979 -10.505232 -4.065971 -4.35249 6.006839 4.530192 -46.171234 9.753303 142.285477 -89.507423 -140.163757 41.245117 -2.591949 28.928659 -5.882107 9.861288 0.702589 -10.936876 -0.360577 7.156207 3e-06 8.774828 -0.0 -16.351311 17.313238 5.757329 -1.844033 2.498504 -2.50728 -10.163604 4.678945 4.62111 -20.976036 -9e-06 -0.0 -21.226299 2.451692 -3.594006 0.0 -4e-06 0.0 -1.362682 2.240798 -0.746325 -21.334925 0.584903 3.008321 -13.821223 -5e-06 1e-06 -23.887184 -0.249086 -0.839483 -62.593487 2.891674 -1.222858 -0.294024 1.679687 0.833256 -14.218217 0.093212 1.300578 -34.212067 -0.287575 0.96717 -20.033226 0.964531 1.212847 1e-06 1e-06 -2e-06 -3.440391 0.788234 0.501654 -15.928198 -3.167314 2.999706 -6.338833 -2e-06 -0.0 -18.123459 3.648177 -4.905674 -6e-06 1e-06 -1e-06 8.957622 6.913188 6.412396 20.164366 71.319786 17.937054 7.131506 79.325851 7.276664 -31.625351 -38.818584 33.047962 2.243545 -5.255038 -3.18016 14.282902 -0.826595 6.952505 -3e-06 -12.690607 0.0 16.404951 -18.196049 2.466898 1.665667 -1.955923 -2.878301 4.727801 -4.170587 4.993926 11.020535 2e-06 -2e-06 12.10906 -3.735716 -2.866786 -0.0 -0.0 0.0 1.291985 -1.928549 -1.49809 14.800139 0.567468 3.865608 14.242582 -1.341735 -6.660662 19.631981 0.143926 -0.648248 51.037273 -0.905417 -6.126234 0.353028 -1.511151 -0.03194 20.222805 3.68431 2.316629 18.787287 5e-06 -3e-06 10.751637 -0.479869 1.397906 1e-06 0.0 -0.0 3.273809 0.305946 -0.580111 21.486832 11.830378 2.266131 8.162933 3e-06 -2e-06 18.399096 -3.798983 -4.940579 2e-06 1e-06 -0.0 21.190887 25.874737 4.857387 -0.258945 -0.393718 22.749237 -14.864399 11.896479 -5.098644 1.66348 -1.917979 -1.024481 -0.0 0.0 2e-06 -19.520832 -15.283774 4.743993 0.272705 0.512993 25.513575 16.605307 -10.579021 -10.663397 -1.436134 0.905454 -1.129249 0.0 1e-06 -1e-06 
0.0 0.0 0.0 0.0 -0.0 0.0 -2.037072 95.413277 -0.910405 0.977875 -0.422317 -14.129548 0.671343 -0.308847 1.588791 -0.137491 -1.025745 -3.90812 3.547635 -3.156882 4.263656 -1.311024 4.036775 30.081278 0.261075 2.565684 -3.304234 1.226036 1.417002 11.113485 7.7e-05 -2.2e-05 5e-06 0.02553 -0.012354 0.000684 0.788834 -3.732238 -10.526464 -0.729029 3.701912 -10.537062 -4.249271 -4.308694 6.040357 4.665977 -46.330994 9.315228 96.894753 -89.601395 -94.795303 41.387074 -2.900461 29.043617 -5.882105 9.861284 0.702591 -10.936872 -0.360576 7.156206 1e-06 8.774826 -1e-06 -16.306108 17.380169 5.828746 -1.844032 2.498503 -2.507279 -10.163601 4.678941 4.621111 -20.976027 -5e-06 5e-06 -21.226286 2.451693 -3.593997 0.0 -5e-06 -1e-06 -1.362681 2.240797 -0.746324 -21.334917 0.584907 3.008324 -13.821217 -2e-06 4e-06 -23.887171 -0.249082 -0.83948 -62.802135 2.899228 -1.224504 -0.294023 1.679685 0.833256 -14.218212 0.093213 1.30058 -34.212051 -0.287567 0.967175 -20.033216 0.964536 1.212847 1e-06 1e-06 -2e-06 -3.440387 0.788232 0.501658 -15.928189 -3.167312 2.999707 -6.338828 -3e-06 1e-06 -18.123444 3.648178 -4.905668 -5e-06 1e-06 -1e-06 9.008939 7.061624 6.538898 19.589315 71.750816 17.763037 5.543431 78.555328 5.621284 -31.53134 -38.765739 33.176384 2.243542 -5.255037 -3.180159 14.282896 -0.826594 6.952503 -3e-06 -12.690601 1e-06 16.365143 -18.228682 2.535042 1.665666 -1.955921 -2.878299 4.727801 -4.170587 4.993925 11.020532 3e-06 -2e-06 12.109058 -3.735714 -2.866786 -0.0 -0.0 -0.0 1.291987 -1.928549 -1.49809 14.800132 0.567468 3.865607 14.242578 -1.341733 -6.66066 19.631973 0.143927 -0.648246 51.054939 -0.960924 -6.137279 0.353029 -1.511151 -0.03194 20.222801 3.68431 2.316628 18.787283 6e-06 -2e-06 10.751632 -0.479867 1.397906 1e-06 -0.0 -1e-06 3.273808 0.305946 -0.58011 21.486818 11.830372 2.266129 8.16293 2e-06 -1e-06 18.399088 -3.798981 -4.940578 2e-06 1e-06 -1e-06 21.175917 25.839382 4.879913 -0.244924 -0.38495 22.795677 -14.783203 12.122285 -5.13545 1.666641 -1.930279 -1.033567 0.0 -1e-06 2e-06 -19.481804 -15.13722 4.608533 0.260115 0.47768 25.629908 16.570354 -10.571551 -10.634895 -1.435956 0.901639 -1.136211 0.0 1e-06 -1e-06 
0.0 0.0 0.0 0.0 -0.0 0.0 -2.006632 95.405968 -0.954842 0.986561 -0.559692 -14.132915 0.656883 -0.275407 1.589106 -0.138722 -1.003167 -3.902057 3.51966 -3.110183 4.33894 -1.258915 3.968863 29.970419 0.296016 2.657192 -3.319874 1.310818 1.484682 11.029772 7.7e-05 -2.3e-05 5e-06 0.024637 -0.007963 0.003989 0.784748 -3.727216 -10.532913 -0.726536 3.705221 -10.549992 -4.414281 -4.262895 6.08277 4.906738 -46.454147 8.779806 65.408386 -89.533119 -63.319721 41.409729 -3.0659 28.990902 -5.882112 9.86129 0.702587 -10.936881 -0.360579 7.156212 2e-06 8.774832 -2e-06 -16.291391 17.447578 5.858212 -1.844034 2.498508 -2.50728 -10.16361 4.678946 4.62111 -20.976044 -9e-06 0.0 -21.226305 2.451694 -3.594004 0.0 -5e-06 -1e-06 -1.362682 2.240801 -0.746324 -21.334934 0.584906 3.008323 -13.821229 -4e-06 2e-06 -23.887194 -0.249085 -0.839483 -62.919239 2.903994 -1.24507 -0.294025 1.679687 0.833255 -14.218223 0.093213 1.300581 -34.212078 -0.287572 0.96717 -20.033232 0.964533 1.212848 1e-06 2e-06 -2e-06 -3.440392 0.788231 0.501657 -15.928201 -3.167315 2.99971 -6.338832 -4e-06 2e-06 -18.123463 3.64818 -4.905675 -6e-06 2e-06 -1e-06 9.044766 7.202266 6.64104 18.97826 72.194481 17.677834 4.04061 77.801735 4.157157 -31.19817 -38.978317 33.095428 2.243543 -5.255038 -3.18016 14.282898 -0.826595 6.952507 -3e-06 -12.690609 0.0 16.306772 -18.262625 2.614256 1.665665 -1.955923 -2.878299 4.7278 -4.170588 4.993927 11.020529 3e-06 -0.0 12.109056 -3.735717 -2.866785 -0.0 -0.0 -0.0 1.291985 -1.92855 -1.49809 14.800134 0.567468 3.86561 14.242577 -1.341736 -6.66066 19.631975 0.143926 -0.648245 51.057755 -0.990311 -6.147666 0.35303 -1.511151 -0.03194 20.222799 3.684311 2.316633 18.787281 4e-06 0.0 10.751633 -0.479868 1.397908 0.0 0.0 -0.0 3.273809 0.305947 -0.580111 21.486824 11.830378 2.266135 8.16293 2e-06 -0.0 18.399092 -3.798985 -4.940577 3e-06 1e-06 -1e-06 21.161728 25.866074 4.871732 -0.233552 -0.383586 22.861418 -14.68152 12.337041 -5.237098 1.668427 -1.93805 -1.03257 -0.0 0.0 2e-06 -19.446293 -15.009298 4.504739 0.248321 0.44522 25.652842 16.546095 -10.595407 -10.615663 -1.435172 0.90234 -1.173336 -0.0 0.0 -1e-06 
